# xmcd
#
# Track frame offsets:
#	150
#	12360
#	23197
#	40515
#	58142
#	72242
#	83892
#	94507
#	109422
#	125957
#	139752
#
# Disc length: 2100 seconds
#
# Revision: 0
# Processed by: cddbd v1.4PL0 Copyright (c) Steve Scherf et al.
# Submitted via: EasyCDDAExtractor 4.5.0.2
#
DISCID=9608320b
DTITLE=Danni Leigh - Advance Promotional CD
DYEAR=1997
DGENRE=Country
TTITLE0=If The Jukebox Took Teardrops
TTITLE1=Beatin' My Head Against The Wall
TTITLE2=29 Nights
TTITLE3=How Does It Feel To You
TTITLE4=Teardrops, Teardrops
TTITLE5=Ol' Lonesome
TTITLE6=Mixed Up Mess Of A Heart
TTITLE7=Touch Me
TTITLE8=I Feel A Heartache
TTITLE9=Chain Me
TTITLE10=Weren't You The One
EXTD=
EXTT0=
EXTT1=
EXTT2=
EXTT3=
EXTT4=
EXTT5=
EXTT6=
EXTT7=
EXTT8=
EXTT9=
EXTT10=
PLAYORDER=
